<svg width="219" height="45" viewBox="0 0 219 45" fill="none" xmlns="http://www.w3.org/2000/svg">
<g clip-path="url(#clip0)">
<path d="M9.54417 38.9706C8.59835 38.8833 7.48057 38.6211 6.2768 38.2716C4.98704 37.9221 3.86926 37.4852 3.00942 36.8736C2.14959 36.2619 1.46172 35.4755 0.859835 34.5143C0.343934 33.5532 0 32.3299 0 30.9318V18.524C0 12.8444 4.29918 9.96094 12.9835 9.96094C15.2191 9.96094 18.1425 10.3105 21.8398 10.9221V16.0774C18.4865 15.291 15.563 14.8541 13.0695 14.8541C12.0377 14.8541 11.1779 14.8541 10.576 14.9415C9.97409 15.0289 9.3722 15.1163 8.77032 15.3784C7.39458 15.8153 6.70671 16.8639 6.70671 18.4367V30.4949C6.70671 33.0289 9.02827 34.3396 13.5854 34.3396C15.563 34.3396 18.3145 33.9027 21.9258 33.0289V38.1842C18.8304 38.7959 15.821 39.1454 12.8975 39.1454C11.6938 39.1454 10.576 39.1454 9.54417 38.9706Z" fill="#F6FCFA"/>
<path d="M32.7599 39.058C31.9 38.9707 31.0402 38.7959 30.0944 38.5338C29.0626 38.2716 28.2027 37.8347 27.6009 37.3105C26.999 36.7862 26.3971 35.9998 25.9672 35.0386C25.5372 34.0775 25.2793 32.9415 25.2793 31.5435V25.2522C25.2793 23.8542 25.5372 22.6309 25.9672 21.5823C26.3971 20.5338 26.913 19.7474 27.6868 19.1357C28.2887 18.6114 29.0626 18.2619 30.0944 17.9124C31.0402 17.5629 32.072 17.3881 33.0178 17.3008C34.1356 17.2134 35.0814 17.2134 35.9413 17.2134C37.231 17.2134 38.3488 17.2134 39.1226 17.3008C39.8965 17.3881 40.7563 17.5629 41.7022 17.825C42.734 18.1745 43.5938 18.6114 44.1957 19.1357C44.8835 19.66 45.3994 20.4464 45.8294 21.4949C46.2593 22.5435 46.5172 23.7668 46.5172 25.2522V31.4561C46.5172 32.7668 46.3453 33.9027 45.9153 34.8639C45.4854 35.825 44.9695 36.6114 44.2817 37.1357C43.6798 37.66 42.9059 38.0095 41.9601 38.359C41.0143 38.7085 39.9825 38.8833 39.0367 38.9707C38.1768 39.058 37.145 39.058 35.9413 39.058C34.6515 39.1454 33.6197 39.1454 32.7599 39.058ZM38.6067 34.9512C39.2086 34.7765 39.6385 34.427 39.8965 34.0775C40.1544 33.6406 40.2404 33.1163 40.2404 32.2425V24.291C40.2404 23.1551 39.9825 22.2813 39.3806 21.8444C38.7787 21.4076 37.6609 21.1454 35.9413 21.1454C34.3076 21.1454 33.1038 21.4076 32.5879 21.8444C31.986 22.2813 31.6421 23.1551 31.6421 24.291V32.2425C31.6421 33.0289 31.7281 33.6406 31.986 34.0775C32.244 34.5143 32.6739 34.7765 33.2758 34.9512C33.8777 35.126 34.7375 35.2134 35.9413 35.2134C37.145 35.2134 38.0049 35.126 38.6067 34.9512Z" fill="#F6FCFA"/>
<path d="M53.9977 38.6211C52.7939 38.2716 52.0201 37.5726 51.5042 36.524C51.0742 35.4755 50.8163 33.9027 50.8163 31.7182V23.5046C50.8163 21.1454 51.5042 19.4852 52.7939 18.6114C54.0837 17.6502 56.2332 17.126 59.1567 17.126C60.5324 17.126 61.6502 17.2134 62.4241 17.3881C63.1979 17.5629 63.8858 17.825 64.3157 18.1745C64.8316 18.6114 65.2615 19.1357 65.8634 19.9221V8.12598H72.1402V38.7085H66.0354V36.2619C65.5195 37.1357 65.0895 37.66 64.6596 38.0095C64.2297 38.359 63.6278 38.6211 62.94 38.7959C62.1661 38.9706 61.0483 39.1454 59.5006 39.1454C57.0071 39.1454 55.2014 38.9706 53.9977 38.6211ZM64.1437 34.9512C64.8316 34.7765 65.2615 34.5143 65.4335 34.1648C65.6914 33.8153 65.7774 33.2036 65.7774 32.4172V23.8541C65.7774 23.1551 65.6914 22.5435 65.4335 22.1939C65.1755 21.757 64.7456 21.4949 64.1437 21.3202C63.5418 21.1454 62.596 21.058 61.3923 21.058C60.1025 21.058 59.1567 21.1454 58.5548 21.3202C57.9529 21.4949 57.609 21.757 57.437 22.1066C57.2651 22.5435 57.1791 23.1551 57.1791 24.0289V32.1551C57.1791 32.9415 57.2651 33.5532 57.437 33.9901C57.609 34.427 57.9529 34.6891 58.5548 34.8638C59.0707 35.0386 59.9305 35.126 61.1343 35.126C62.4241 35.2134 63.4559 35.126 64.1437 34.9512Z" fill="#F6FCFA"/>
<path d="M76.9553 32.3299V24.7279C76.9553 22.1066 77.8152 20.1842 79.4488 18.9609C81.1685 17.7376 83.748 17.126 87.1874 17.126C90.4547 17.126 92.8623 17.7376 94.41 18.8735C95.9577 20.0095 96.7315 21.9318 96.7315 24.7279V29.8833H83.3181V31.8056C83.3181 33.0289 83.748 33.9027 84.6079 34.4269C85.4677 34.9512 87.0154 35.2134 89.251 35.2134C91.3146 35.2134 93.6361 34.8638 96.2156 34.2522V38.2716C93.6361 38.7959 90.9706 39.1454 88.0472 39.1454C80.6526 39.1454 76.9553 36.8736 76.9553 32.3299ZM90.7987 26.2134V23.1551C90.7987 22.4561 90.5407 21.9318 89.9388 21.5823C89.337 21.2328 88.4771 21.058 87.1014 21.058C85.5537 21.058 84.5219 21.2328 84.006 21.5823C83.4901 21.9318 83.2321 22.4561 83.2321 23.1551V26.2134H90.7987Z" fill="#F6FCFA"/>
<path d="M115.046 9H126.396C129.062 9 131.125 9.17476 132.587 9.61165C134.049 9.96116 135.081 10.6602 135.682 11.4466C136.284 12.3204 136.542 13.5437 136.542 15.0291V18.5243C136.542 19.3107 136.198 20.0971 135.596 20.7087C134.995 21.4078 134.221 21.932 133.447 22.1942V22.4563C134.565 22.5437 135.51 23.068 136.456 23.8544C137.316 24.6408 137.832 25.6019 137.832 26.6505V31.0194C137.832 33.2913 136.972 34.9515 135.081 35.9126C133.275 36.8738 130.523 37.3107 126.654 37.3107H115.046V9ZM126.396 20.534C127.428 20.534 128.202 20.4466 128.804 20.2718C129.32 20.0971 129.664 19.835 129.836 19.3981C130.008 18.9612 130.093 18.4369 130.093 17.6505V16.2524C130.093 15.5534 130.008 15.1165 129.836 14.767C129.664 14.4175 129.32 14.1553 128.804 14.068C128.288 13.8932 127.428 13.8058 126.31 13.8058H121.839V20.4466H126.396V20.534ZM126.568 32.5049C128.202 32.5049 129.406 32.3301 130.008 31.8932C130.695 31.5437 131.039 30.932 131.039 30.0583V27.7864C131.039 26.7379 130.781 25.9515 130.265 25.5146C129.75 25.0777 128.804 24.8155 127.428 24.8155H121.753V32.4175H126.568V32.5049Z" fill="#1DD1A1"/>
<path d="M148.924 37.6601C148.064 37.5727 147.204 37.398 146.258 37.1358C145.226 36.8737 144.367 36.4368 143.765 35.9125C143.163 35.3882 142.647 34.6018 142.217 33.6407C141.787 32.6795 141.529 31.5436 141.529 30.1455V23.8543C141.529 22.4562 141.787 21.2329 142.217 20.1844C142.647 19.1358 143.163 18.3494 143.937 17.7378C144.539 17.2135 145.312 16.864 146.344 16.5145C147.376 16.1649 148.322 15.9902 149.268 15.9028C150.385 15.8154 151.331 15.8154 152.277 15.8154C153.567 15.8154 154.685 15.8154 155.459 15.9028C156.232 15.9902 157.092 16.1649 158.038 16.4271C159.07 16.7766 159.93 17.2135 160.532 17.7378C161.219 18.262 161.735 19.0484 162.165 20.097C162.595 21.1455 162.853 22.3688 162.853 23.8543V30.1455C162.853 31.4562 162.681 32.5921 162.251 33.5533C161.821 34.5145 161.305 35.3009 160.618 35.8251C160.016 36.3494 159.242 36.6989 158.296 37.0484C157.35 37.398 156.318 37.5727 155.373 37.6601C154.513 37.7475 153.481 37.7475 152.277 37.7475C150.815 37.8348 149.698 37.7475 148.924 37.6601ZM154.771 33.5533C155.373 33.3785 155.802 33.029 156.06 32.6795C156.318 32.2426 156.404 31.7183 156.404 30.8446V22.8931C156.404 21.7572 156.146 20.8834 155.545 20.4465C154.943 20.0096 153.825 19.7475 152.105 19.7475C150.471 19.7475 149.268 20.0096 148.666 20.4465C148.064 20.8834 147.806 21.7572 147.806 22.8931V30.8446C147.806 31.631 147.892 32.2426 148.15 32.6795C148.408 33.1164 148.838 33.3785 149.44 33.5533C150.042 33.7281 150.901 33.8154 152.105 33.8154C153.223 33.8154 154.169 33.7281 154.771 33.5533Z" fill="#1DD1A1"/>
<path d="M173.429 26.5626L165.691 16.252H172.999L177.127 22.3685L181.254 16.252H188.563L180.824 26.5626L188.992 37.3976H181.684L177.127 30.7568L172.57 37.3976H165.261L173.429 26.5626Z" fill="#1DD1A1"/>
<path d="M219 45H107.479V0H219.086V45H219ZM110.919 41.5049H215.646V3.49515H110.919V41.5049Z" fill="#F6FCFA"/>
<path d="M211.777 33.2036H193.979V37.3104H211.777V33.2036Z" fill="#F6FCFA"/>
</g>
<defs>
<clipPath id="clip0">
<rect width="219" height="45" fill="white"/>
</clipPath>
</defs>
</svg>
